<?xml version="1.0" encoding="UTF-8" standalone="no"?> <!-- Created with Vectornator for iOS (http://vectornator.io/) --><!DOCTYPE svg PUBLIC "-//W3C//DTD SVG 1.1//EN" "http://www.w3.org/Graphics/SVG/1.1/DTD/svg11.dtd">
<svg style="fill-rule:evenodd;clip-rule:evenodd;stroke-linecap:round;stroke-linejoin:round;" xmlns:vectornator="http://vectornator.io" xmlns:xlink="http://www.w3.org/1999/xlink" xmlns="http://www.w3.org/2000/svg" xml:space="preserve" version="1.1" viewBox="0 0 1024 1024">
<metadata>
<vectornator:setting key="DisplayWhiteBackground" value="0"/>
<vectornator:setting key="RulersVisible" value="1"/>
<vectornator:setting key="GridSpacing" value="36"/>
<vectornator:setting key="Units" value="Pixels"/>
<vectornator:setting key="New" value="1"/>
<vectornator:setting key="DynamicGuides" value="0"/>
<vectornator:setting key="SnapToPoints" value="0"/>
<vectornator:setting key="CMYKEnabledKey" value="0"/>
<vectornator:setting key="SnapToGrid" value="0"/>
<vectornator:setting key="SnapToGuides" value="1"/>
<vectornator:setting key="SnapToEdges" value="0"/>
</metadata>
<defs/>
<g id="Layer 6" vectornator:layerName="Layer 6">
<path d="M-10.4219-25.0593L1093.97-25.0593L1093.97+1068.48L-10.4219+1068.48L-10.4219-25.0593Z" opacity="1" fill="#5ea0dc"/>
</g>
<g id="Layer 4" vectornator:layerName="Layer 4">
<path d="M431.711+716.333L434.607+718.709C593.435+853.68+829.021+852.729+986.883+716.333L986.883+716.333L431.711+716.333Z" opacity="1" fill="#8ccfb9"/>
<path d="M745.504+763.858L431.711+716.333L504.124+573.759L528.262+573.759L648.952+336.135L842.055+716.333L745.504+763.858" opacity="1" fill="#88a0ba"/>
<path d="M726.193+639.343L745.504+763.858L842.055+716.333L726.193+639.343" opacity="1" fill="#637488"/>
<path d="M697.228+431.184L648.952+336.135L576.538+478.709L648.952+478.709L697.228+431.184" opacity="1" fill="#ffffff"/>
<path d="M950.193+716.333L986.883+716.333L840.124+431.184L769.641+573.759L842.055+716.333L950.193+716.333" opacity="1" fill="#88a0ba"/>
<path d="M793.504+525.488L769.641+573.759L842.055+716.333L871.021+716.333L841.09+573.759L793.504+525.488" opacity="1" fill="#6f8399"/>
<path d="M697.228+431.184L648.952+478.709L648.952+588.016L726.193+639.343L726.193+639.343L842.055+716.333L697.228+431.184" opacity="1" fill="#6f8399"/>
<path d="M648.952+336.135L648.952+478.709L697.228+431.184L648.952+336.135" opacity="1" fill="#cecfd0"/>
<path d="M840.124+431.184L793.297+526.234L841.09+573.759L888.883+526.234L840.124+431.184Z" opacity="1" fill="#ffffff"/>
<path d="M842.055+730.59C836.745+730.59+831.434+727.739+829.021+722.511L756.607+579.937C754.676+576.135+754.676+571.382+756.607+567.105L827.09+424.531C829.503+419.778+834.331+416.452+840.124+416.452C845.917+416.452+850.745+419.303+853.159+424.056L999.917+709.204C1003.3+716.333+1000.88+724.887+993.641+728.214C986.4+731.541+977.71+729.165+974.331+722.036L840.124+463.026L785.572+573.759L854.607+710.155C857.986+717.284+855.09+725.838+848.331+729.165C846.4+730.115+844.469+730.59+842.055+730.59Z" opacity="1" fill="#454b54"/>
<path d="M745.504+778.115C744.538+778.115+744.055+778.115+743.09+778.115L586.193+754.353C578.469+752.927+572.676+745.798+574.124+738.194C575.573+730.59+582.814+724.887+590.538+726.313L743.09+749.6L835.297+703.977C842.538+700.65+851.228+703.501+854.607+710.155C857.986+717.284+855.09+725.838+848.331+729.165L751.779+776.689C749.848+777.64+747.917+778.115+745.504+778.115Z" opacity="1" fill="#454b54"/>
<path d="M842.055+730.59C836.745+730.59+831.434+727.739+829.021+722.511L648.952+367.976L541.297+579.937C538.883+584.689+534.055+588.016+528.262+588.016L513.297+588.016L444.745+722.511C441.366+729.64+432.676+732.491+425.435+728.689C418.194+725.363+415.297+716.808+419.159+709.68L491.573+567.105C493.987+562.353+498.814+559.026+504.607+559.026L519.573+559.026L636.4+329.481C638.814+324.729+643.642+321.402+649.435+321.402C655.228+321.402+660.055+324.254+662.469+329.481L855.572+709.68C858.952+716.808+856.055+725.363+849.297+728.689C846.4+730.115+844.469+730.59+842.055+730.59Z" opacity="1" fill="#454b54"/>
</g>
<g id="Layer 5" vectornator:layerName="Layer 5">
<path d="M-40.6471+643.716L1085.65+725.119L1066.41+1088.08L-59.8856+1006.67L-40.6471+643.716Z" opacity="1" fill="#39591a"/>
<path d="M1070.72+563.947L1071.49+563.947L1071.49+566.272L1070.72+566.272L1070.72+563.947Z" opacity="1" fill="#39591a"/>
<path d="M1101.72+255.494L1102.49+255.494L1102.49+259.369L1101.72+259.369L1101.72+255.494Z" opacity="1" fill="#39591a"/>
<path d="M1113.34+370.97L1116.44+370.97L1116.44+371.745L1113.34+371.745L1113.34+370.97Z" opacity="1" fill="#39591a"/>
</g>
<g id="Layer 3" vectornator:layerName="Layer 3">
<path d="M-222.127+1024.39L1101.17+678.35L1493.56+1133.09L170.267+1479.13L-222.127+1024.39Z" opacity="1" fill="#497221"/>
</g>
<g id="Layer 2" vectornator:layerName="Layer 2">
<path d="M196.324+828.405C194.122+828.859+191.778+828.922+189.452+828.486C181.504+827.01+177.015+820.325+179.461+813.57L198.354+761.102L190.841+706.586C190.368+699.741+200.548+694.012+208.844+693.069C217.14+692.126+227.592+696.225+228.065+703.07L228.532+759.902C228.651+761.36+228.446+762.86+227.927+764.301L208.246+818.957C206.517+823.761+201.773+827.283+196.324+828.405Z" opacity="1" fill="#f9a825"/>
<path d="M228.487+752.202L228.065+703.07C227.592+696.225+217.169+692.12+208.873+693.063C200.577+694.006+190.368+699.741+190.841+706.586L197.996+758.483L228.487+752.202Z" opacity="1" fill="#2d4c5c"/>
<path d="M306.006+609.859L322.107+606.672L364.144+802.781L348.043+805.968L306.006+609.859Z" opacity="1" fill="#795548"/>
<path d="M227.978+568.873C244.383+565.494+259.894+573.615+262.657+587.031C265.416+600.423+254.382+614.037+237.977+617.416C221.572+620.795+206.056+612.65+203.298+599.258C200.535+585.842+211.573+572.252+227.978+568.873" opacity="1" fill="#ffb74d"/>
<path d="M278.001+811.581C276.929+811.802+275.808+811.934+274.697+811.966C266.399+812.168+260.018+806.712+260.439+799.806L263.562+749.548L203.209+723.212C196.127+720.075+193.771+712.012+198.151+705.847C202.503+699.687+214.93+687.121+222.046+690.276L286.952+730.647C291.639+732.72+294.364+736.854+294.098+741.43L290.507+799.098C290.137+805.079+284.784+810.184+278.001+811.581Z" opacity="1" fill="#ffb74d"/>
<path d="M283.829+658.574C281.655+659.021+279.403+658.942+277.338+658.305L225.673+645.251C219.996+643.505+217.442+638.15+220.003+633.274C222.53+628.38+229.194+625.822+234.9+627.562L280.574+638.81L314.325+615.353C319.339+611.973+326.411+612.419+330.087+616.332C333.768+620.268+332.664+626.203+327.621+629.589L288.619+656.599C287.152+657.543+285.539+658.221+283.829+658.574Z" opacity="1" fill="#ffb74d"/>
<path d="M130.056+690.767C129.065+697.691+134.817+709.775+149.756+710.28L173.634+712.379C181.908+712.651+190.336+707.654+191.331+700.753L198.455+649.672C199.45+642.771+199.25+637.253+191.005+636.974L177.839+636.425C162.9+635.919+134.557+659.522+130.946+684.53C130.056+690.767+130.056+690.767+130.056+690.767Z" opacity="1" fill="#5ec08f"/>
<path d="M221.5+725.177C218.776+725.738+215.949+725.95+213.073+725.776C198.684+724.861+188.876+714.354+191.108+702.306L199.034+646.909C201.26+634.837+214.749+625.808+229.104+626.705C243.488+627.597+253.301+638.127+251.07+650.175L243.144+705.573C241.356+715.231+232.369+722.938+221.5+725.177Z" opacity="1" fill="#ff66a1"/>
<path d="M176.446+712.245C183.718+711.463+190.421+706.895+191.307+700.783L191.493+699.633L198.455+649.672C199.335+643.387+200.011+636.107+187.429+636.92C185.907+639.803+184.744+642.81+184.156+645.97L184.108+646.178L184.065+646.409L176.187+701.599C175.552+705.263+175.767+708.802+176.446+712.245Z" opacity="1" fill="#41a571"/>
<path d="M280.999+638.525L280.603+638.804L234.9+627.562C229.194+625.822+222.53+628.38+220.003+633.274C217.442+638.15+223.68+649.071+229.386+650.812L277.338+658.305C279.403+658.942+281.655+659.021+283.829+658.574C284.235+658.49+284.655+658.329+285.051+658.198L280.999+638.525Z" opacity="1" fill="#ff66a1"/>
<path d="M191.393+700.32L191.108+702.306C189.296+711.995+195.355+720.58+205.202+724.087L263.562+749.548L286.952+730.647L243.463+703.605L191.393+700.32Z" opacity="1" fill="#546e7a"/>
<path d="M243.343+703.605L243.42+703.539L250.436+654.58L249.951+653.692L236.956+651.624L228.833+702.69L243.343+703.605Z" opacity="1" fill="#ec407a"/>
</g>
<g id="Layer 1" vectornator:layerName="Layer 1">
<path d="M-404.603+1326.78C-404.603+1031.3+4.99419+791.757+510.258+791.757C1015.52+791.757+1425.12+1031.3+1425.12+1326.78C1425.12+1622.27+1015.52+1861.81+510.258+1861.81C4.99419+1861.81-404.603+1622.27-404.603+1326.78Z" opacity="1" fill="#7cb342"/>
</g>
</svg>
